<?xml version="1.0" encoding="UTF-8" standalone="no"?><svg xmlns="http://www.w3.org/2000/svg" xmlns:xlink="http://www.w3.org/1999/xlink" contentStyleType="text/css" height="660px" preserveAspectRatio="none" style="width:566px;height:660px;background:#FFFFFF;" version="1.1" viewBox="0 0 566 660" width="566px" zoomAndPan="magnify"><defs/><g><text fill="#000000" font-family="Serif" font-size="10" lengthAdjust="spacing" textLength="10" x="29" y="25.3359">10</text><text fill="#000000" font-family="Serif" font-size="10" lengthAdjust="spacing" textLength="10" x="57" y="25.3359">11</text><text fill="#000000" font-family="Serif" font-size="10" lengthAdjust="spacing" textLength="10" x="85" y="25.3359">12</text><text fill="#000000" font-family="Serif" font-size="10" lengthAdjust="spacing" textLength="10" x="113" y="25.3359">13</text><text fill="#000000" font-family="Serif" font-size="10" lengthAdjust="spacing" textLength="10" x="141" y="25.3359">14</text><text fill="#000000" font-family="Serif" font-size="10" lengthAdjust="spacing" textLength="10" x="169" y="25.3359">15</text><text fill="#000000" font-family="Serif" font-size="10" lengthAdjust="spacing" textLength="10" x="197" y="25.3359">16</text><text fill="#000000" font-family="Serif" font-size="10" lengthAdjust="spacing" textLength="10" x="225" y="25.3359">17</text><text fill="#000000" font-family="Serif" font-size="10" lengthAdjust="spacing" textLength="10" x="253" y="25.3359">18</text><text fill="#000000" font-family="Serif" font-size="10" lengthAdjust="spacing" textLength="10" x="281" y="25.3359">19</text><text fill="#000000" font-family="Serif" font-size="10" lengthAdjust="spacing" textLength="10" x="309" y="25.3359">20</text><text fill="#000000" font-family="Serif" font-size="10" lengthAdjust="spacing" textLength="10" x="337" y="25.3359">21</text><text fill="#000000" font-family="Serif" font-size="10" lengthAdjust="spacing" textLength="10" x="365" y="25.3359">22</text><text fill="#000000" font-family="Serif" font-size="10" lengthAdjust="spacing" textLength="10" x="393" y="25.3359">23</text><text fill="#000000" font-family="Serif" font-size="10" lengthAdjust="spacing" textLength="10" x="421" y="25.3359">24</text><text fill="#000000" font-family="Serif" font-size="10" lengthAdjust="spacing" textLength="10" x="449" y="25.3359">25</text><text fill="#000000" font-family="Serif" font-size="10" lengthAdjust="spacing" textLength="10" x="477" y="25.3359">26</text><line style="stroke:#C0C0C0;stroke-width:1.0;" x1="24" x2="24" y1="16" y2="642.3848"/><line style="stroke:#C0C0C0;stroke-width:1.0;" x1="52" x2="52" y1="16" y2="642.3848"/><line style="stroke:#C0C0C0;stroke-width:1.0;" x1="80" x2="80" y1="16" y2="642.3848"/><line style="stroke:#C0C0C0;stroke-width:1.0;" x1="108" x2="108" y1="16" y2="642.3848"/><line style="stroke:#C0C0C0;stroke-width:1.0;" x1="136" x2="136" y1="16" y2="642.3848"/><line style="stroke:#C0C0C0;stroke-width:1.0;" x1="164" x2="164" y1="16" y2="642.3848"/><line style="stroke:#C0C0C0;stroke-width:1.0;" x1="192" x2="192" y1="16" y2="642.3848"/><line style="stroke:#C0C0C0;stroke-width:1.0;" x1="220" x2="220" y1="16" y2="642.3848"/><line style="stroke:#C0C0C0;stroke-width:1.0;" x1="248" x2="248" y1="16" y2="642.3848"/><line style="stroke:#C0C0C0;stroke-width:1.0;" x1="276" x2="276" y1="16" y2="642.3848"/><line style="stroke:#C0C0C0;stroke-width:1.0;" x1="304" x2="304" y1="16" y2="642.3848"/><line style="stroke:#C0C0C0;stroke-width:1.0;" x1="332" x2="332" y1="16" y2="642.3848"/><line style="stroke:#C0C0C0;stroke-width:1.0;" x1="360" x2="360" y1="16" y2="642.3848"/><line style="stroke:#C0C0C0;stroke-width:1.0;" x1="388" x2="388" y1="16" y2="642.3848"/><line style="stroke:#C0C0C0;stroke-width:1.0;" x1="416" x2="416" y1="16" y2="642.3848"/><line style="stroke:#C0C0C0;stroke-width:1.0;" x1="444" x2="444" y1="16" y2="642.3848"/><line style="stroke:#C0C0C0;stroke-width:1.0;" x1="472" x2="472" y1="16" y2="642.3848"/><line style="stroke:#C0C0C0;stroke-width:1.0;" x1="480" x2="480" y1="16" y2="642.3848"/><line style="stroke:#C0C0C0;stroke-width:1.0;" x1="0" x2="0" y1="0" y2="16"/><line style="stroke:#C0C0C0;stroke-width:1.0;" x1="4" x2="4" y1="0" y2="16"/><text fill="#000000" font-family="Serif" font-size="12" font-weight="bold" lengthAdjust="spacing" textLength="19" x="0" y="11.2031">Feb</text><line style="stroke:#C0C0C0;stroke-width:1.0;" x1="128" x2="128" y1="0" y2="16"/><text fill="#000000" font-family="Serif" font-size="12" font-weight="bold" lengthAdjust="spacing" textLength="49" x="41.5" y="11.2031">Mar 2023</text><line style="stroke:#C0C0C0;stroke-width:1.0;" x1="248" x2="248" y1="0" y2="16"/><text fill="#000000" font-family="Serif" font-size="12" font-weight="bold" lengthAdjust="spacing" textLength="48" x="164" y="11.2031">Apr 2023</text><line style="stroke:#C0C0C0;stroke-width:1.0;" x1="372" x2="372" y1="0" y2="16"/><text fill="#000000" font-family="Serif" font-size="12" font-weight="bold" lengthAdjust="spacing" textLength="50" x="285" y="11.2031">May 2023</text><line style="stroke:#C0C0C0;stroke-width:1.0;" x1="480" x2="480" y1="0" y2="16"/><text fill="#000000" font-family="Serif" font-size="12" font-weight="bold" lengthAdjust="spacing" textLength="47" x="402.5" y="11.2031">Jun 2023</text><line style="stroke:#C0C0C0;stroke-width:1.0;" x1="0" x2="480" y1="0" y2="0"/><line style="stroke:#C0C0C0;stroke-width:1.0;" x1="0" x2="480" y1="16" y2="16"/><line style="stroke:#C0C0C0;stroke-width:1.0;" x1="0" x2="480" y1="29" y2="29"/><line style="stroke:#181818;stroke-width:1.5;" x1="51" x2="51" y1="143.7754" y2="225.7178"/><line style="stroke:#181818;stroke-width:1.5;" x1="51" x2="59" y1="225.7178" y2="225.7178"/><polygon fill="#181818" points="55,221.7178,55,225.7178,55,229.7178,59,225.7178" style="stroke:#181818;stroke-width:1.5;"/><line style="stroke:#008000;stroke-width:1.5;stroke-dasharray:7.0,7.0;" x1="247" x2="247" y1="232.1953" y2="398.9131"/><line style="stroke:#008000;stroke-width:1.5;stroke-dasharray:7.0,7.0;" x1="247" x2="255" y1="398.9131" y2="398.9131"/><polygon fill="#008000" points="251,394.9131,251,398.9131,251,402.9131,255,398.9131" style="stroke:#008000;stroke-width:1.5;"/><line style="stroke:#00FFFF;stroke-width:1.5;stroke-dasharray:7.0,7.0;" x1="331" x2="331" y1="405.3906" y2="490.9775"/><line style="stroke:#00FFFF;stroke-width:1.5;stroke-dasharray:7.0,7.0;" x1="331" x2="339" y1="490.9775" y2="490.9775"/><polygon fill="#00FFFF" points="335,486.9775,335,490.9775,335,494.9775,339,490.9775" style="stroke:#00FFFF;stroke-width:1.5;"/><line style="stroke:#0000FF;stroke-width:1.5;stroke-dasharray:7.0,7.0;" x1="443" x2="443" y1="497.4551" y2="596.3525"/><line style="stroke:#0000FF;stroke-width:1.5;stroke-dasharray:7.0,7.0;" x1="443" x2="451" y1="596.3525" y2="596.3525"/><polygon fill="#0000FF" points="447,592.3525,447,596.3525,447,600.3525,451,596.3525" style="stroke:#0000FF;stroke-width:1.5;"/><line style="stroke:#181818;stroke-width:1.0;" x1="0" x2="5" y1="45.4775" y2="45.4775"/><line style="stroke:#181818;stroke-width:1.0;" x1="81" x2="479" y1="45.4775" y2="45.4775"/><rect fill="#008000" height="12.9551" style="stroke:none;stroke-width:1.0;" width="448" x="2" y="63.9551"/><line style="stroke:#008000;stroke-width:1.0;" x1="2" x2="450" y1="63.9551" y2="63.9551"/><line style="stroke:#008000;stroke-width:1.0;" x1="2" x2="450" y1="76.9102" y2="76.9102"/><line style="stroke:#008000;stroke-width:1.0;" x1="2" x2="2" y1="63.9551" y2="76.9102"/><line style="stroke:#008000;stroke-width:1.0;" x1="450" x2="450" y1="63.9551" y2="76.9102"/><rect fill="#0000FF" height="12.9551" style="stroke:none;stroke-width:1.0;" width="28" x="450" y="80.9102"/><line style="stroke:#0000FF;stroke-width:1.0;" x1="450" x2="478" y1="80.9102" y2="80.9102"/><line style="stroke:#0000FF;stroke-width:1.0;" x1="450" x2="478" y1="93.8652" y2="93.8652"/><line style="stroke:#0000FF;stroke-width:1.0;" x1="450" x2="450" y1="80.9102" y2="93.8652"/><line style="stroke:#0000FF;stroke-width:1.0;" x1="478" x2="478" y1="80.9102" y2="93.8652"/><line style="stroke:#181818;stroke-width:1.0;" x1="0" x2="5" y1="112.3428" y2="112.3428"/><line style="stroke:#181818;stroke-width:1.0;" x1="45" x2="479" y1="112.3428" y2="112.3428"/><rect fill="#FF0000" height="12.9551" style="stroke:none;stroke-width:1.0;" width="56" x="2" y="130.8203"/><line style="stroke:#FF0000;stroke-width:1.0;" x1="2" x2="58" y1="130.8203" y2="130.8203"/><line style="stroke:#FF0000;stroke-width:1.0;" x1="2" x2="58" y1="143.7754" y2="143.7754"/><line style="stroke:#FF0000;stroke-width:1.0;" x1="2" x2="2" y1="130.8203" y2="143.7754"/><line style="stroke:#FF0000;stroke-width:1.0;" x1="58" x2="58" y1="130.8203" y2="143.7754"/><rect fill="#E2E2F0" height="12.9551" style="stroke:none;stroke-width:1.0;" width="1" x="2" y="147.7754"/><line style="stroke:#181818;stroke-width:1.0;" x1="2" x2="3" y1="147.7754" y2="147.7754"/><line style="stroke:#181818;stroke-width:1.0;" x1="2" x2="3" y1="160.7305" y2="160.7305"/><line style="stroke:#181818;stroke-width:1.0;" x1="2" x2="2" y1="147.7754" y2="160.7305"/><line style="stroke:#181818;stroke-width:1.0;" x1="3" x2="3" y1="147.7754" y2="160.7305"/><rect fill="#E2E2F0" height="12.9551" style="stroke:none;stroke-width:1.0;" width="1" x="30" y="164.7305"/><line style="stroke:#181818;stroke-width:1.0;" x1="30" x2="31" y1="164.7305" y2="164.7305"/><line style="stroke:#181818;stroke-width:1.0;" x1="30" x2="31" y1="177.6855" y2="177.6855"/><line style="stroke:#181818;stroke-width:1.0;" x1="30" x2="30" y1="164.7305" y2="177.6855"/><line style="stroke:#181818;stroke-width:1.0;" x1="31" x2="31" y1="164.7305" y2="177.6855"/><path d="M56,196.6406 L56,217.2402 L226,217.2402 L226,206.6406 L216,196.6406 L56,196.6406 " fill="#FEFFDD" style="stroke:#181818;stroke-width:0.5;"/><path d="M216,196.6406 L216,206.6406 L226,206.6406 L216,196.6406 " fill="#FEFFDD" style="stroke:#181818;stroke-width:0.5;"/><text fill="#000000" font-family="sans-serif" font-size="9" lengthAdjust="spacing" textLength="149" x="62" y="210.3418">Entrega: Termo de Compromisso</text><rect fill="#E2E2F0" height="12.9551" style="stroke:none;stroke-width:1.0;" width="1" x="58" y="181.6855"/><line style="stroke:#181818;stroke-width:1.0;" x1="58" x2="59" y1="181.6855" y2="181.6855"/><line style="stroke:#181818;stroke-width:1.0;" x1="58" x2="59" y1="194.6406" y2="194.6406"/><line style="stroke:#181818;stroke-width:1.0;" x1="58" x2="58" y1="181.6855" y2="194.6406"/><line style="stroke:#181818;stroke-width:1.0;" x1="59" x2="59" y1="181.6855" y2="194.6406"/><rect fill="#E2E2F0" height="12.9551" style="stroke:none;stroke-width:1.0;" width="192" x="62" y="219.2402"/><line style="stroke:#181818;stroke-width:1.0;" x1="62" x2="254" y1="219.2402" y2="219.2402"/><line style="stroke:#181818;stroke-width:1.0;" x1="62" x2="254" y1="232.1953" y2="232.1953"/><line style="stroke:#181818;stroke-width:1.0;" x1="62" x2="62" y1="219.2402" y2="232.1953"/><line style="stroke:#181818;stroke-width:1.0;" x1="254" x2="254" y1="219.2402" y2="232.1953"/><rect fill="#E2E2F0" height="12.9551" style="stroke:none;stroke-width:1.0;" width="1" x="86" y="236.1953"/><line style="stroke:#181818;stroke-width:1.0;" x1="86" x2="87" y1="236.1953" y2="236.1953"/><line style="stroke:#181818;stroke-width:1.0;" x1="86" x2="87" y1="249.1504" y2="249.1504"/><line style="stroke:#181818;stroke-width:1.0;" x1="86" x2="86" y1="236.1953" y2="249.1504"/><line style="stroke:#181818;stroke-width:1.0;" x1="87" x2="87" y1="236.1953" y2="249.1504"/><rect fill="#E2E2F0" height="12.9551" style="stroke:none;stroke-width:1.0;" width="1" x="114" y="253.1504"/><line style="stroke:#181818;stroke-width:1.0;" x1="114" x2="115" y1="253.1504" y2="253.1504"/><line style="stroke:#181818;stroke-width:1.0;" x1="114" x2="115" y1="266.1055" y2="266.1055"/><line style="stroke:#181818;stroke-width:1.0;" x1="114" x2="114" y1="253.1504" y2="266.1055"/><line style="stroke:#181818;stroke-width:1.0;" x1="115" x2="115" y1="253.1504" y2="266.1055"/><rect fill="#E2E2F0" height="12.9551" style="stroke:none;stroke-width:1.0;" width="1" x="142" y="270.1055"/><line style="stroke:#181818;stroke-width:1.0;" x1="142" x2="143" y1="270.1055" y2="270.1055"/><line style="stroke:#181818;stroke-width:1.0;" x1="142" x2="143" y1="283.0605" y2="283.0605"/><line style="stroke:#181818;stroke-width:1.0;" x1="142" x2="142" y1="270.1055" y2="283.0605"/><line style="stroke:#181818;stroke-width:1.0;" x1="143" x2="143" y1="270.1055" y2="283.0605"/><rect fill="#E2E2F0" height="12.9551" style="stroke:none;stroke-width:1.0;" width="1" x="170" y="287.0605"/><line style="stroke:#181818;stroke-width:1.0;" x1="170" x2="171" y1="287.0605" y2="287.0605"/><line style="stroke:#181818;stroke-width:1.0;" x1="170" x2="171" y1="300.0156" y2="300.0156"/><line style="stroke:#181818;stroke-width:1.0;" x1="170" x2="170" y1="287.0605" y2="300.0156"/><line style="stroke:#181818;stroke-width:1.0;" x1="171" x2="171" y1="287.0605" y2="300.0156"/><rect fill="#E2E2F0" height="12.9551" style="stroke:none;stroke-width:1.0;" width="1" x="198" y="304.0156"/><line style="stroke:#181818;stroke-width:1.0;" x1="198" x2="199" y1="304.0156" y2="304.0156"/><line style="stroke:#181818;stroke-width:1.0;" x1="198" x2="199" y1="316.9707" y2="316.9707"/><line style="stroke:#181818;stroke-width:1.0;" x1="198" x2="198" y1="304.0156" y2="316.9707"/><line style="stroke:#181818;stroke-width:1.0;" x1="199" x2="199" y1="304.0156" y2="316.9707"/><rect fill="#E2E2F0" height="12.9551" style="stroke:none;stroke-width:1.0;" width="1" x="226" y="320.9707"/><line style="stroke:#181818;stroke-width:1.0;" x1="226" x2="227" y1="320.9707" y2="320.9707"/><line style="stroke:#181818;stroke-width:1.0;" x1="226" x2="227" y1="333.9258" y2="333.9258"/><line style="stroke:#181818;stroke-width:1.0;" x1="226" x2="226" y1="320.9707" y2="333.9258"/><line style="stroke:#181818;stroke-width:1.0;" x1="227" x2="227" y1="320.9707" y2="333.9258"/><path d="M252,352.8809 L252,373.4805 L390,373.4805 L390,362.8809 L380,352.8809 L252,352.8809 " fill="#FEFFDD" style="stroke:#181818;stroke-width:0.5;"/><path d="M380,352.8809 L380,362.8809 L390,362.8809 L380,352.8809 " fill="#FEFFDD" style="stroke:#181818;stroke-width:0.5;"/><text fill="#000000" font-family="sans-serif" font-size="9" lengthAdjust="spacing" textLength="114" x="258" y="366.582">Entrega: Pré-projeto (SIS)</text><rect fill="#E2E2F0" height="12.9551" style="stroke:none;stroke-width:1.0;" width="1" x="254" y="337.9258"/><line style="stroke:#181818;stroke-width:1.0;" x1="254" x2="255" y1="337.9258" y2="337.9258"/><line style="stroke:#181818;stroke-width:1.0;" x1="254" x2="255" y1="350.8809" y2="350.8809"/><line style="stroke:#181818;stroke-width:1.0;" x1="254" x2="254" y1="337.9258" y2="350.8809"/><line style="stroke:#181818;stroke-width:1.0;" x1="255" x2="255" y1="337.9258" y2="350.8809"/><rect fill="#E2E2F0" height="12.9551" style="stroke:none;stroke-width:1.0;" width="1" x="282" y="375.4805"/><line style="stroke:#181818;stroke-width:1.0;" x1="282" x2="283" y1="375.4805" y2="375.4805"/><line style="stroke:#181818;stroke-width:1.0;" x1="282" x2="283" y1="388.4355" y2="388.4355"/><line style="stroke:#181818;stroke-width:1.0;" x1="282" x2="282" y1="375.4805" y2="388.4355"/><line style="stroke:#181818;stroke-width:1.0;" x1="283" x2="283" y1="375.4805" y2="388.4355"/><path d="M256,407.3906 L256,427.9902 L345,427.9902 L345,417.3906 L335,407.3906 L256,407.3906 " fill="#FEFFDD" style="stroke:#181818;stroke-width:0.5;"/><path d="M335,407.3906 L335,417.3906 L345,417.3906 L335,407.3906 " fill="#FEFFDD" style="stroke:#181818;stroke-width:0.5;"/><text fill="#000000" font-family="sans-serif" font-size="9" lengthAdjust="spacing" textLength="65" x="262" y="421.0918">Avaliação (SIS)</text><rect fill="#E2E2F0" height="12.9551" style="stroke:none;stroke-width:1.0;" width="80" x="258" y="392.4355"/><line style="stroke:#181818;stroke-width:1.0;" x1="258" x2="338" y1="392.4355" y2="392.4355"/><line style="stroke:#181818;stroke-width:1.0;" x1="258" x2="338" y1="405.3906" y2="405.3906"/><line style="stroke:#181818;stroke-width:1.0;" x1="258" x2="258" y1="392.4355" y2="405.3906"/><line style="stroke:#181818;stroke-width:1.0;" x1="338" x2="338" y1="392.4355" y2="405.3906"/><path d="M308,444.9453 L308,465.5449 L397,465.5449 L397,454.9453 L387,444.9453 L308,444.9453 " fill="#FEFFDD" style="stroke:#181818;stroke-width:0.5;"/><path d="M387,444.9453 L387,454.9453 L397,454.9453 L387,444.9453 " fill="#FEFFDD" style="stroke:#181818;stroke-width:0.5;"/><text fill="#000000" font-family="sans-serif" font-size="9" lengthAdjust="spacing" textLength="65" x="314" y="458.6465">Avaliação (SIS)</text><rect fill="#E2E2F0" height="12.9551" style="stroke:none;stroke-width:1.0;" width="1" x="310" y="429.9902"/><line style="stroke:#181818;stroke-width:1.0;" x1="310" x2="311" y1="429.9902" y2="429.9902"/><line style="stroke:#181818;stroke-width:1.0;" x1="310" x2="311" y1="442.9453" y2="442.9453"/><line style="stroke:#181818;stroke-width:1.0;" x1="310" x2="310" y1="429.9902" y2="442.9453"/><line style="stroke:#181818;stroke-width:1.0;" x1="311" x2="311" y1="429.9902" y2="442.9453"/><rect fill="#E2E2F0" height="12.9551" style="stroke:none;stroke-width:1.0;" width="1" x="338" y="467.5449"/><line style="stroke:#181818;stroke-width:1.0;" x1="338" x2="339" y1="467.5449" y2="467.5449"/><line style="stroke:#181818;stroke-width:1.0;" x1="338" x2="339" y1="480.5" y2="480.5"/><line style="stroke:#181818;stroke-width:1.0;" x1="338" x2="338" y1="467.5449" y2="480.5"/><line style="stroke:#181818;stroke-width:1.0;" x1="339" x2="339" y1="467.5449" y2="480.5"/><rect fill="#E2E2F0" height="12.9551" style="stroke:none;stroke-width:1.0;" width="108" x="342" y="484.5"/><line style="stroke:#181818;stroke-width:1.0;" x1="342" x2="450" y1="484.5" y2="484.5"/><line style="stroke:#181818;stroke-width:1.0;" x1="342" x2="450" y1="497.4551" y2="497.4551"/><line style="stroke:#181818;stroke-width:1.0;" x1="342" x2="342" y1="484.5" y2="497.4551"/><line style="stroke:#181818;stroke-width:1.0;" x1="450" x2="450" y1="484.5" y2="497.4551"/><rect fill="#E2E2F0" height="12.9551" style="stroke:none;stroke-width:1.0;" width="1" x="366" y="501.4551"/><line style="stroke:#181818;stroke-width:1.0;" x1="366" x2="367" y1="501.4551" y2="501.4551"/><line style="stroke:#181818;stroke-width:1.0;" x1="366" x2="367" y1="514.4102" y2="514.4102"/><line style="stroke:#181818;stroke-width:1.0;" x1="366" x2="366" y1="501.4551" y2="514.4102"/><line style="stroke:#181818;stroke-width:1.0;" x1="367" x2="367" y1="501.4551" y2="514.4102"/><rect fill="#E2E2F0" height="12.9551" style="stroke:none;stroke-width:1.0;" width="1" x="394" y="518.4102"/><line style="stroke:#181818;stroke-width:1.0;" x1="394" x2="395" y1="518.4102" y2="518.4102"/><line style="stroke:#181818;stroke-width:1.0;" x1="394" x2="395" y1="531.3652" y2="531.3652"/><line style="stroke:#181818;stroke-width:1.0;" x1="394" x2="394" y1="518.4102" y2="531.3652"/><line style="stroke:#181818;stroke-width:1.0;" x1="395" x2="395" y1="518.4102" y2="531.3652"/><rect fill="#E2E2F0" height="12.9551" style="stroke:none;stroke-width:1.0;" width="1" x="422" y="535.3652"/><line style="stroke:#181818;stroke-width:1.0;" x1="422" x2="423" y1="535.3652" y2="535.3652"/><line style="stroke:#181818;stroke-width:1.0;" x1="422" x2="423" y1="548.3203" y2="548.3203"/><line style="stroke:#181818;stroke-width:1.0;" x1="422" x2="422" y1="535.3652" y2="548.3203"/><line style="stroke:#181818;stroke-width:1.0;" x1="423" x2="423" y1="535.3652" y2="548.3203"/><path d="M448,567.2754 L448,587.875 L544,587.875 L544,577.2754 L534,567.2754 L448,567.2754 " fill="#FEFFDD" style="stroke:#181818;stroke-width:0.5;"/><path d="M534,567.2754 L534,577.2754 L544,577.2754 L534,567.2754 " fill="#FEFFDD" style="stroke:#181818;stroke-width:0.5;"/><text fill="#000000" font-family="sans-serif" font-size="9" lengthAdjust="spacing" textLength="72" x="454" y="580.9766">Entrega: Projeto</text><rect fill="#E2E2F0" height="12.9551" style="stroke:none;stroke-width:1.0;" width="1" x="450" y="552.3203"/><line style="stroke:#181818;stroke-width:1.0;" x1="450" x2="451" y1="552.3203" y2="552.3203"/><line style="stroke:#181818;stroke-width:1.0;" x1="450" x2="451" y1="565.2754" y2="565.2754"/><line style="stroke:#181818;stroke-width:1.0;" x1="450" x2="450" y1="552.3203" y2="565.2754"/><line style="stroke:#181818;stroke-width:1.0;" x1="451" x2="451" y1="552.3203" y2="565.2754"/><path d="M452,604.8301 L452,625.4297 L564,625.4297 L564,614.8301 L554,604.8301 L452,604.8301 " fill="#FEFFDD" style="stroke:#181818;stroke-width:0.5;"/><path d="M554,604.8301 L554,614.8301 L564,614.8301 L554,604.8301 " fill="#FEFFDD" style="stroke:#181818;stroke-width:0.5;"/><text fill="#000000" font-family="sans-serif" font-size="9" lengthAdjust="spacing" textLength="91" x="458" y="618.5313">Avaliações: Projetos</text><rect fill="#E2E2F0" height="12.9551" style="stroke:none;stroke-width:1.0;" width="24" x="454" y="589.875"/><line style="stroke:#181818;stroke-width:1.0;" x1="454" x2="478" y1="589.875" y2="589.875"/><line style="stroke:#181818;stroke-width:1.0;" x1="454" x2="478" y1="602.8301" y2="602.8301"/><line style="stroke:#181818;stroke-width:1.0;" x1="454" x2="454" y1="589.875" y2="602.8301"/><line style="stroke:#181818;stroke-width:1.0;" x1="478" x2="478" y1="589.875" y2="602.8301"/><rect fill="#E2E2F0" height="12.9551" style="stroke:none;stroke-width:1.0;" width="1" x="478" y="627.4297"/><line style="stroke:#181818;stroke-width:1.0;" x1="478" x2="479" y1="627.4297" y2="627.4297"/><line style="stroke:#181818;stroke-width:1.0;" x1="478" x2="479" y1="640.3848" y2="640.3848"/><line style="stroke:#181818;stroke-width:1.0;" x1="478" x2="478" y1="627.4297" y2="640.3848"/><line style="stroke:#181818;stroke-width:1.0;" x1="479" x2="479" y1="627.4297" y2="640.3848"/><text fill="#000000" font-family="sans-serif" font-size="11" lengthAdjust="spacing" textLength="66" x="10" y="49.6348">cronograma</text><text fill="#000000" font-family="sans-serif" font-size="11" lengthAdjust="spacing" textLength="63" x="6" y="74.5898">completado</text><text fill="#000000" font-family="sans-serif" font-size="11" lengthAdjust="spacing" textLength="23" x="482" y="91.5449">falta</text><text fill="#000000" font-family="sans-serif" font-size="11" lengthAdjust="spacing" textLength="30" x="10" y="116.5">Aulas</text><text fill="#000000" font-family="sans-serif" font-size="11" lengthAdjust="spacing" textLength="35" x="6" y="141.4551">Termo</text><text fill="#000000" font-family="sans-serif" font-size="11" lengthAdjust="spacing" textLength="38" x="6" y="158.4102">Aula01</text><text fill="#000000" font-family="sans-serif" font-size="11" lengthAdjust="spacing" textLength="38" x="34" y="175.3652">Aula02</text><text fill="#000000" font-family="sans-serif" font-size="11" lengthAdjust="spacing" textLength="38" x="62" y="192.3203">Aula03</text><text fill="#000000" font-family="sans-serif" font-size="11" lengthAdjust="spacing" textLength="88" x="66" y="229.875">Pré-projeto (SIS)</text><text fill="#000000" font-family="sans-serif" font-size="11" lengthAdjust="spacing" textLength="38" x="90" y="246.8301">Aula04</text><text fill="#000000" font-family="sans-serif" font-size="11" lengthAdjust="spacing" textLength="38" x="118" y="263.7852">Aula05</text><text fill="#000000" font-family="sans-serif" font-size="11" lengthAdjust="spacing" textLength="38" x="146" y="280.7402">Aula06</text><text fill="#000000" font-family="sans-serif" font-size="11" lengthAdjust="spacing" textLength="38" x="174" y="297.6953">Aula07</text><text fill="#000000" font-family="sans-serif" font-size="11" lengthAdjust="spacing" textLength="38" x="202" y="314.6504">Aula08</text><text fill="#000000" font-family="sans-serif" font-size="11" lengthAdjust="spacing" textLength="38" x="230" y="331.6055">Aula09</text><text fill="#000000" font-family="sans-serif" font-size="11" lengthAdjust="spacing" textLength="38" x="258" y="348.5605">Aula10</text><text fill="#000000" font-family="sans-serif" font-size="11" lengthAdjust="spacing" textLength="38" x="286" y="386.1152">Aula11</text><text fill="#000000" font-family="sans-serif" font-size="11" lengthAdjust="spacing" textLength="51" x="262" y="403.0703">Avaliacao</text><text fill="#000000" font-family="sans-serif" font-size="11" lengthAdjust="spacing" textLength="38" x="314" y="440.625">Aula12</text><text fill="#000000" font-family="sans-serif" font-size="11" lengthAdjust="spacing" textLength="38" x="342" y="478.1797">Aula13</text><text fill="#000000" font-family="sans-serif" font-size="11" lengthAdjust="spacing" textLength="38" x="346" y="495.1348">Projeto</text><text fill="#000000" font-family="sans-serif" font-size="11" lengthAdjust="spacing" textLength="38" x="370" y="512.0898">Aula14</text><text fill="#000000" font-family="sans-serif" font-size="11" lengthAdjust="spacing" textLength="38" x="398" y="529.0449">Aula15</text><text fill="#000000" font-family="sans-serif" font-size="11" lengthAdjust="spacing" textLength="38" x="426" y="546">Aula16</text><text fill="#000000" font-family="sans-serif" font-size="11" lengthAdjust="spacing" textLength="38" x="454" y="562.9551">Aula17</text><text fill="#000000" font-family="sans-serif" font-size="11" lengthAdjust="spacing" textLength="25" x="482" y="600.5098">Final</text><text fill="#000000" font-family="sans-serif" font-size="11" lengthAdjust="spacing" textLength="38" x="482" y="638.0645">Aula18</text><line style="stroke:#C0C0C0;stroke-width:1.0;" x1="0" x2="480" y1="642.3848" y2="642.3848"/><line style="stroke:#C0C0C0;stroke-width:1.0;" x1="0" x2="0" y1="642.3848" y2="658.3848"/><line style="stroke:#C0C0C0;stroke-width:1.0;" x1="4" x2="4" y1="642.3848" y2="658.3848"/><text fill="#000000" font-family="Serif" font-size="12" font-weight="bold" lengthAdjust="spacing" textLength="19" x="0" y="653.5879">Feb</text><line style="stroke:#C0C0C0;stroke-width:1.0;" x1="128" x2="128" y1="642.3848" y2="658.3848"/><text fill="#000000" font-family="Serif" font-size="12" font-weight="bold" lengthAdjust="spacing" textLength="49" x="41.5" y="653.5879">Mar 2023</text><line style="stroke:#C0C0C0;stroke-width:1.0;" x1="248" x2="248" y1="642.3848" y2="658.3848"/><text fill="#000000" font-family="Serif" font-size="12" font-weight="bold" lengthAdjust="spacing" textLength="48" x="164" y="653.5879">Apr 2023</text><line style="stroke:#C0C0C0;stroke-width:1.0;" x1="372" x2="372" y1="642.3848" y2="658.3848"/><text fill="#000000" font-family="Serif" font-size="12" font-weight="bold" lengthAdjust="spacing" textLength="50" x="285" y="653.5879">May 2023</text><line style="stroke:#C0C0C0;stroke-width:1.0;" x1="480" x2="480" y1="642.3848" y2="658.3848"/><text fill="#000000" font-family="Serif" font-size="12" font-weight="bold" lengthAdjust="spacing" textLength="47" x="402.5" y="653.5879">Jun 2023</text><line style="stroke:#C0C0C0;stroke-width:1.0;" x1="0" x2="480" y1="658.3848" y2="658.3848"/><!--MD5=[ee7cb779459afe3cdcf4c90a2b04ef66]
@startgantt cronograma_SIS

/'TODO: tentar usar variáveis do sistema: https://blog.jdriven.com/2017/01/plantuml-pleasantness-using-current-date/  '/
/'atualizar'/
!$dataInicio = "	2023-02-28	"
!$dataFim  = "	2023-06-27	"
!$Aula01 = $dataInicio		
!$Aula02 = "	2023-03-07	"
!$Aula03 = "	2023-03-14	"
!$Aula04 = "	2023-03-21	"
!$Aula05 = "	2023-03-28	"
!$Aula06 = "	2023-04-04	"
!$Aula07 = "	2023-04-11	"
!$Aula08 = "	2023-04-18	"
!$Aula09 = "	2023-04-25	"
!$Aula10 = "	2023-05-02	"
!$Aula11 = "	2023-05-09	"
!$Aula12 = "	2023-05-16	"
!$Aula13 = "	2023-05-23	"
!$Aula14 = "	2023-05-30	"
!$Aula15 = "	2023-06-06	"
!$Aula16 = "	2023-06-13	"
!$Aula17 = "	2023-06-20	"
!$Aula18 = "	2023-06-27	"
!$Aula18 = $dataFim		
!$dataAtual  = $Aula17
/'atualizar'/

ganttscale weekly

Project starts $dataInicio

- - cronograma - - 
[completado] is colored in green
[completado] starts $dataInicio and ends $dataAtual
[falta] starts $dataAtual and ends $dataFim
[falta] is colored in blue

- - Aulas - - 
[Termo] is colored in Red
[Termo]  starts $Aula01 and ends $Aula03
[Aula01] starts $Aula01 and ends $Aula01
[Aula02] starts $Aula02 and ends $Aula02
[Aula03] starts $Aula03 and ends $Aula03
note bottom
Entrega: Termo de Compromisso
end note
[Pré-projeto (SIS)] starts at [Termo]'s end
[Pré-projeto (SIS)] ends $Aula10
[Aula04] starts $Aula04 and ends $Aula04
[Aula05] starts $Aula05 and ends $Aula05
[Aula06] starts $Aula06 and ends $Aula06
[Aula07] starts $Aula07 and ends $Aula07
[Aula08] starts $Aula08 and ends $Aula08
[Aula09] starts $Aula09 and ends $Aula09
[Aula10] starts $Aula10 and ends $Aula10
note bottom
Entrega: Pré-projeto (SIS) 
end note
[Aula11] starts $Aula11 and ends $Aula11
[Avaliacao] starts at [Pré-projeto (SIS)]'s end with green dashed link
[Avaliacao] ends $Aula13
note bottom
Avaliação (SIS) 
end note
[Aula12] starts $Aula12 and ends $Aula12
note bottom
Avaliação (SIS) 
end note
[Aula13] starts $Aula13 and ends $Aula13
[Projeto] starts at [Avaliacao]'s end with cyan dashed link
[Projeto] ends $Aula17
[Aula14] starts $Aula14 and ends $Aula14
[Aula15] starts $Aula15 and ends $Aula15
[Aula16] starts $Aula16 and ends $Aula16
[Aula17] starts $Aula17 and ends $Aula17
note bottom
Entrega: Projeto 
end note
[Final] starts at [Projeto]'s end with blue dashed link
[Final] ends $Aula18
note bottom
Avaliações: Projetos
end note
[Aula18] starts $Aula18 and ends $Aula18

@endgantt

@startgantt cronograma_SIS


ganttscale weekly

Project starts 	2023-02-28	

- - cronograma - - 
[completado] is colored in green
[completado] starts 	2023-02-28	 and ends 	2023-06-20	
[falta] starts 	2023-06-20	 and ends 	2023-06-27	
[falta] is colored in blue

- - Aulas - - 
[Termo] is colored in Red
[Termo]  starts 	2023-02-28	 and ends 	2023-03-14	
[Aula01] starts 	2023-02-28	 and ends 	2023-02-28	
[Aula02] starts 	2023-03-07	 and ends 	2023-03-07	
[Aula03] starts 	2023-03-14	 and ends 	2023-03-14	
note bottom
Entrega: Termo de Compromisso
end note
[Pré-projeto (SIS)] starts at [Termo]'s end
[Pré-projeto (SIS)] ends 	2023-05-02	
[Aula04] starts 	2023-03-21	 and ends 	2023-03-21	
[Aula05] starts 	2023-03-28	 and ends 	2023-03-28	
[Aula06] starts 	2023-04-04	 and ends 	2023-04-04	
[Aula07] starts 	2023-04-11	 and ends 	2023-04-11	
[Aula08] starts 	2023-04-18	 and ends 	2023-04-18	
[Aula09] starts 	2023-04-25	 and ends 	2023-04-25	
[Aula10] starts 	2023-05-02	 and ends 	2023-05-02	
note bottom
Entrega: Pré-projeto (SIS) 
end note
[Aula11] starts 	2023-05-09	 and ends 	2023-05-09	
[Avaliacao] starts at [Pré-projeto (SIS)]'s end with green dashed link
[Avaliacao] ends 	2023-05-23	
note bottom
Avaliação (SIS) 
end note
[Aula12] starts 	2023-05-16	 and ends 	2023-05-16	
note bottom
Avaliação (SIS) 
end note
[Aula13] starts 	2023-05-23	 and ends 	2023-05-23	
[Projeto] starts at [Avaliacao]'s end with cyan dashed link
[Projeto] ends 	2023-06-20	
[Aula14] starts 	2023-05-30	 and ends 	2023-05-30	
[Aula15] starts 	2023-06-06	 and ends 	2023-06-06	
[Aula16] starts 	2023-06-13	 and ends 	2023-06-13	
[Aula17] starts 	2023-06-20	 and ends 	2023-06-20	
note bottom
Entrega: Projeto 
end note
[Final] starts at [Projeto]'s end with blue dashed link
[Final] ends 	2023-06-27	
note bottom
Avaliações: Projetos
end note
[Aula18] starts 	2023-06-27	 and ends 	2023-06-27	

@endgantt

PlantUML version 1.2022.7(Mon Aug 22 14:01:30 BRT 2022)
(GPL source distribution)
Java Runtime: OpenJDK Runtime Environment
JVM: OpenJDK 64-Bit Server VM
Default Encoding: UTF-8
Language: en
Country: BR
--></g></svg>